<svg width="125" height="125" viewBox="0 0 125 125" fill="none" xmlns="http://www.w3.org/2000/svg">
<path d="M0.333252 62.828C0.333252 28.5863 28.0916 0.827881 62.3333 0.827881C96.575 0.827881 124.333 28.5863 124.333 62.828V124.828H0.333252V62.828Z" fill="#F3AFA8"/>
<path d="M32.5018 98.8838L39.1 98.8838L39.1 92.0557L32.5018 92.0557L32.5018 98.8838ZM87.4351 42.8731C87.4351 42.4112 87.0733 42.0368 86.627 42.0368L79.354 42.0368C78.9077 42.0368 78.5459 42.4112 78.5459 42.8731C78.5459 43.335 78.9077 43.7094 79.354 43.7094L85.8189 43.7094L85.8189 50.3995C85.8189 50.8614 86.1807 51.2358 86.627 51.2358C87.0733 51.2358 87.4351 50.8614 87.4351 50.3995L87.4351 42.8731ZM36.3723 96.0611L87.1984 43.4644L86.0556 42.2818L35.2295 94.8784L36.3723 96.0611Z" fill="#2D2D2D"/>
</svg>
