<svg width="124" height="17" viewBox="0 0 124 17" fill="none" xmlns="http://www.w3.org/2000/svg">
<path d="M10.74 3.35H6.07L7.04 2.04V16H4.4V2.04L5.42 3.35H0.71V1.25H10.74V3.35ZM16.4814 16.21C15.3614 16.21 14.3747 15.9767 13.5214 15.51C12.6681 15.0367 11.9981 14.3833 11.5114 13.55C11.0314 12.7167 10.7914 11.7633 10.7914 10.69C10.7914 9.61 11.0314 8.66 11.5114 7.84C11.9981 7.01333 12.6681 6.36667 13.5214 5.9C14.3747 5.43333 15.3614 5.2 16.4814 5.2C17.6014 5.2 18.5881 5.43333 19.4414 5.9C20.2947 6.36667 20.9614 7.01333 21.4414 7.84C21.9281 8.66 22.1714 9.61 22.1714 10.69C22.1714 11.7633 21.9281 12.7167 21.4414 13.55C20.9614 14.3833 20.2947 15.0367 19.4414 15.51C18.5881 15.9767 17.6014 16.21 16.4814 16.21ZM16.4814 14.06C17.0881 14.06 17.6181 13.92 18.0714 13.64C18.5247 13.36 18.8781 12.97 19.1314 12.47C19.3847 11.9633 19.5114 11.37 19.5114 10.69C19.5114 10.01 19.3847 9.42333 19.1314 8.93C18.8781 8.43 18.5247 8.04333 18.0714 7.77C17.6181 7.49667 17.0881 7.36 16.4814 7.36C15.8814 7.36 15.3514 7.49667 14.8914 7.77C14.4381 8.04333 14.0847 8.43 13.8314 8.93C13.5781 9.42333 13.4514 10.01 13.4514 10.69C13.4514 11.37 13.5781 11.9633 13.8314 12.47C14.0847 12.97 14.4381 13.36 14.8914 13.64C15.3514 13.92 15.8814 14.06 16.4814 14.06ZM28.1673 16.2C27.414 16.2 26.7873 16.0733 26.2873 15.82C25.794 15.5667 25.404 15.2333 25.1173 14.82C24.8373 14.4067 24.6373 13.95 24.5173 13.45C24.404 12.95 24.3473 12.45 24.3473 11.95C24.3473 11.7033 24.3473 11.4467 24.3473 11.18C24.3473 10.9133 24.3473 10.6433 24.3473 10.37V5.38H26.9873V9.96C26.9873 10.2 26.9873 10.43 26.9873 10.65C26.9873 10.87 26.9873 11.0767 26.9873 11.27C26.9873 11.7433 27.044 12.1833 27.1573 12.59C27.2707 12.99 27.4773 13.3133 27.7773 13.56C28.084 13.8067 28.514 13.93 29.0673 13.93C29.594 13.93 30.0473 13.7767 30.4273 13.47C30.8073 13.1567 31.1007 12.7633 31.3073 12.29C31.5207 11.8167 31.6273 11.3367 31.6273 10.85L32.5273 11.45C32.5273 12.0967 32.4273 12.7067 32.2273 13.28C32.0273 13.8467 31.7373 14.35 31.3573 14.79C30.9773 15.23 30.5173 15.5767 29.9773 15.83C29.444 16.0767 28.8407 16.2 28.1673 16.2ZM31.6273 16V5.38H34.2573V16H31.6273ZM41.0788 16.22C40.4454 16.22 39.8421 16.15 39.2688 16.01C38.7021 15.87 38.1954 15.66 37.7488 15.38C37.3088 15.1 36.9588 14.7533 36.6988 14.34C36.4454 13.92 36.3188 13.4367 36.3188 12.89C36.3188 12.85 36.3188 12.81 36.3188 12.77C36.3188 12.73 36.3188 12.6933 36.3188 12.66H38.9388C38.9388 12.6933 38.9388 12.7233 38.9388 12.75C38.9388 12.77 38.9388 12.8 38.9388 12.84C38.9388 13.2733 39.1354 13.6 39.5288 13.82C39.9288 14.0333 40.4721 14.14 41.1588 14.14C41.5321 14.14 41.8821 14.1 42.2088 14.02C42.5421 13.94 42.8088 13.8167 43.0088 13.65C43.2154 13.4833 43.3188 13.27 43.3188 13.01C43.3188 12.59 43.1021 12.29 42.6688 12.11C42.2421 11.93 41.5688 11.7667 40.6488 11.62C40.1421 11.5333 39.6421 11.4167 39.1488 11.27C38.6554 11.1233 38.2054 10.9267 37.7988 10.68C37.3988 10.4333 37.0754 10.1267 36.8288 9.76C36.5888 9.39333 36.4688 8.94667 36.4688 8.42C36.4688 7.72 36.6754 7.13333 37.0888 6.66C37.5088 6.18 38.0688 5.81667 38.7688 5.57C39.4754 5.32333 40.2521 5.2 41.0988 5.2C41.9121 5.2 42.6688 5.33333 43.3688 5.6C44.0688 5.86667 44.6321 6.25 45.0588 6.75C45.4921 7.25 45.7088 7.85333 45.7088 8.56C45.7088 8.58667 45.7088 8.61667 45.7088 8.65C45.7088 8.67667 45.7088 8.7 45.7088 8.72H43.1088C43.1088 8.7 43.1088 8.68 43.1088 8.66C43.1088 8.64 43.1088 8.61667 43.1088 8.59C43.1088 8.28333 43.0121 8.03333 42.8188 7.84C42.6254 7.64667 42.3754 7.50333 42.0688 7.41C41.7621 7.31667 41.4388 7.27 41.0988 7.27C40.7988 7.27 40.4888 7.30333 40.1688 7.37C39.8488 7.43 39.5821 7.54 39.3688 7.7C39.1554 7.85333 39.0488 8.07 39.0488 8.35C39.0488 8.61667 39.1588 8.83333 39.3788 9C39.5988 9.16667 39.9054 9.30667 40.2988 9.42C40.6921 9.52667 41.1454 9.62333 41.6588 9.71C42.1454 9.79 42.6354 9.9 43.1288 10.04C43.6288 10.18 44.0854 10.3667 44.4988 10.6C44.9121 10.8333 45.2454 11.14 45.4988 11.52C45.7588 11.8933 45.8888 12.3567 45.8888 12.91C45.8888 13.4967 45.7554 13.9967 45.4888 14.41C45.2221 14.8233 44.8588 15.1667 44.3988 15.44C43.9454 15.7067 43.4321 15.9033 42.8588 16.03C42.2854 16.1567 41.6921 16.22 41.0788 16.22ZM48.0083 16V5.38H50.6083V16H48.0083ZM49.3183 3.42C48.8916 3.42 48.5183 3.30667 48.1983 3.08C47.8849 2.84667 47.7283 2.52333 47.7283 2.11C47.7283 1.70333 47.8849 1.38667 48.1983 1.16C48.5183 0.933332 48.8916 0.819999 49.3183 0.819999C49.7383 0.819999 50.1049 0.933332 50.4183 1.16C50.7316 1.38667 50.8883 1.70333 50.8883 2.11C50.8883 2.52333 50.7316 2.84667 50.4183 3.08C50.1049 3.30667 49.7383 3.42 49.3183 3.42ZM54.5045 16V7.48H52.2545V5.38H54.5045V4.43C54.5045 3.81 54.5879 3.26667 54.7545 2.8C54.9212 2.32667 55.1479 1.92667 55.4345 1.6C55.7212 1.27333 56.0479 1.01 56.4145 0.809999C56.7879 0.603333 57.1845 0.453332 57.6045 0.359999C58.0312 0.266666 58.4545 0.219999 58.8745 0.219999C59.2745 0.219999 59.5779 0.243333 59.7845 0.289999C59.9979 0.336665 60.1412 0.376666 60.2145 0.41V2.53C60.1345 2.50333 59.9945 2.47333 59.7945 2.44C59.6012 2.4 59.3912 2.38 59.1645 2.38C58.7579 2.38 58.4212 2.44 58.1545 2.56C57.8879 2.67333 57.6812 2.83333 57.5345 3.04C57.3879 3.24667 57.2845 3.48667 57.2245 3.76C57.1645 4.02667 57.1345 4.32 57.1345 4.64V5.38H60.0745V7.48H57.1345V16H54.5045ZM76.2088 3.35H71.5388L72.5088 2.04V16H69.8688V2.04L70.8888 3.35H66.1788V1.25H76.2088V3.35ZM80.3702 16.22C79.5768 16.22 78.8802 16.0967 78.2802 15.85C77.6802 15.5967 77.2102 15.2333 76.8702 14.76C76.5302 14.2867 76.3602 13.7167 76.3602 13.05C76.3602 12.3233 76.5568 11.7267 76.9502 11.26C77.3502 10.7867 77.8868 10.4233 78.5602 10.17C79.2335 9.91 79.9802 9.74333 80.8002 9.67C82.0135 9.55 82.8602 9.43667 83.3402 9.33C83.8268 9.21667 84.0702 9.03667 84.0702 8.79C84.0702 8.78333 84.0702 8.78 84.0702 8.78C84.0702 8.77333 84.0702 8.77 84.0702 8.77C84.0702 8.30333 83.8602 7.94333 83.4402 7.69C83.0202 7.43667 82.4268 7.31 81.6602 7.31C80.8535 7.31 80.2335 7.45333 79.8002 7.74C79.3735 8.02 79.1602 8.46667 79.1602 9.08H76.5602C76.5602 8.24667 76.7802 7.54333 77.2202 6.97C77.6668 6.39 78.2768 5.95 79.0502 5.65C79.8235 5.35 80.7002 5.2 81.6802 5.2C82.5935 5.2 83.4302 5.33667 84.1902 5.61C84.9502 5.88333 85.5602 6.29667 86.0202 6.85C86.4802 7.40333 86.7102 8.09333 86.7102 8.92C86.7102 9.06 86.7102 9.2 86.7102 9.34C86.7102 9.48 86.7102 9.62 86.7102 9.76V13.76C86.7102 14.0133 86.7168 14.2633 86.7302 14.51C86.7502 14.75 86.7868 14.9667 86.8402 15.16C86.9068 15.3733 86.9868 15.5533 87.0802 15.7C87.1735 15.8467 87.2468 15.9467 87.3002 16H84.7002C84.6535 15.9533 84.5868 15.8633 84.5002 15.73C84.4202 15.59 84.3468 15.43 84.2802 15.25C84.2135 15.05 84.1635 14.8367 84.1302 14.61C84.0968 14.3767 84.0802 14.12 84.0802 13.84L84.6002 14.2C84.4002 14.6067 84.0935 14.9633 83.6802 15.27C83.2735 15.57 82.7868 15.8033 82.2202 15.97C81.6535 16.1367 81.0368 16.22 80.3702 16.22ZM81.0102 14.15C81.5568 14.15 82.0635 14.0567 82.5302 13.87C82.9968 13.6833 83.3735 13.3967 83.6602 13.01C83.9468 12.6167 84.0902 12.1133 84.0902 11.5V10.08L84.7302 10.8C84.3035 10.96 83.7902 11.0933 83.1902 11.2C82.5902 11.3 81.9835 11.38 81.3702 11.44C80.5835 11.5133 79.9902 11.65 79.5902 11.85C79.1968 12.05 79.0002 12.3767 79.0002 12.83C79.0002 13.27 79.1668 13.6 79.5002 13.82C79.8335 14.04 80.3368 14.15 81.0102 14.15ZM93.442 16.22C92.8087 16.22 92.2054 16.15 91.632 16.01C91.0654 15.87 90.5587 15.66 90.112 15.38C89.672 15.1 89.322 14.7533 89.062 14.34C88.8087 13.92 88.682 13.4367 88.682 12.89C88.682 12.85 88.682 12.81 88.682 12.77C88.682 12.73 88.682 12.6933 88.682 12.66H91.302C91.302 12.6933 91.302 12.7233 91.302 12.75C91.302 12.77 91.302 12.8 91.302 12.84C91.302 13.2733 91.4987 13.6 91.892 13.82C92.292 14.0333 92.8354 14.14 93.522 14.14C93.8954 14.14 94.2454 14.1 94.572 14.02C94.9054 13.94 95.172 13.8167 95.372 13.65C95.5787 13.4833 95.682 13.27 95.682 13.01C95.682 12.59 95.4654 12.29 95.032 12.11C94.6054 11.93 93.932 11.7667 93.012 11.62C92.5054 11.5333 92.0054 11.4167 91.512 11.27C91.0187 11.1233 90.5687 10.9267 90.162 10.68C89.762 10.4333 89.4387 10.1267 89.192 9.76C88.952 9.39333 88.832 8.94667 88.832 8.42C88.832 7.72 89.0387 7.13333 89.452 6.66C89.872 6.18 90.432 5.81667 91.132 5.57C91.8387 5.32333 92.6154 5.2 93.462 5.2C94.2754 5.2 95.032 5.33333 95.732 5.6C96.432 5.86667 96.9954 6.25 97.422 6.75C97.8554 7.25 98.072 7.85333 98.072 8.56C98.072 8.58667 98.072 8.61667 98.072 8.65C98.072 8.67667 98.072 8.7 98.072 8.72H95.472C95.472 8.7 95.472 8.68 95.472 8.66C95.472 8.64 95.472 8.61667 95.472 8.59C95.472 8.28333 95.3754 8.03333 95.182 7.84C94.9887 7.64667 94.7387 7.50333 94.432 7.41C94.1254 7.31667 93.802 7.27 93.462 7.27C93.162 7.27 92.852 7.30333 92.532 7.37C92.212 7.43 91.9454 7.54 91.732 7.7C91.5187 7.85333 91.412 8.07 91.412 8.35C91.412 8.61667 91.522 8.83333 91.742 9C91.962 9.16667 92.2687 9.30667 92.662 9.42C93.0554 9.52667 93.5087 9.62333 94.022 9.71C94.5087 9.79 94.9987 9.9 95.492 10.04C95.992 10.18 96.4487 10.3667 96.862 10.6C97.2754 10.8333 97.6087 11.14 97.862 11.52C98.122 11.8933 98.252 12.3567 98.252 12.91C98.252 13.4967 98.1187 13.9967 97.852 14.41C97.5854 14.8233 97.222 15.1667 96.762 15.44C96.3087 15.7067 95.7954 15.9033 95.222 16.03C94.6487 16.1567 94.0554 16.22 93.442 16.22ZM100.422 16V5.38H103.052V8.91L102.442 8.57C102.508 8.11 102.632 7.67667 102.812 7.27C102.992 6.85667 103.232 6.49667 103.532 6.19C103.832 5.87667 104.195 5.63333 104.622 5.46C105.048 5.28667 105.535 5.2 106.082 5.2C106.515 5.2 106.855 5.23333 107.102 5.3C107.355 5.36 107.512 5.41 107.572 5.45L107.092 7.86C107.025 7.81333 106.888 7.75667 106.682 7.69C106.482 7.61667 106.212 7.58 105.872 7.58C105.332 7.58 104.878 7.67333 104.512 7.86C104.152 8.04 103.865 8.28667 103.652 8.6C103.438 8.90667 103.285 9.24667 103.192 9.62C103.098 9.98667 103.052 10.3533 103.052 10.72V16H100.422ZM109.18 16V5.38H111.78V16H109.18ZM110.49 3.42C110.063 3.42 109.69 3.30667 109.37 3.08C109.057 2.84667 108.9 2.52333 108.9 2.11C108.9 1.70333 109.057 1.38667 109.37 1.16C109.69 0.933332 110.063 0.819999 110.49 0.819999C110.91 0.819999 111.277 0.933332 111.59 1.16C111.903 1.38667 112.06 1.70333 112.06 2.11C112.06 2.52333 111.903 2.84667 111.59 3.08C111.277 3.30667 110.91 3.42 110.49 3.42ZM114.386 16V0.369999H116.886V9.53L116.316 9.25L120.706 5.38H123.976L118.776 10.01L119.366 8.93L123.926 16H121.146L117.646 10.33L118.286 10.44L116.586 11.96L116.886 10.79V16H114.386Z" fill="#2D2D2D"/>
</svg>
